<?xml version="1.0" encoding="UTF-8"?>
<svg id="Lager_1" data-name="Lager 1" xmlns="http://www.w3.org/2000/svg" width="237.75" height="237.77" viewBox="0 0 237.75 237.77">
  <g>
    <rect x="114.68" y="38.55" width="6.83" height="160.64" fill="#8131ff"/>
    <rect x="38.54" y="115.46" width="160.64" height="6.83" fill="#8131ff"/>
    <rect x="37.77" y="115.46" width="160.64" height="6.83" transform="translate(-49.47 118.32) rotate(-45)" fill="#8131ff"/>
    <rect x="114.68" y="38.55" width="6.83" height="160.64" transform="translate(-49.47 118.32) rotate(-45)" fill="#8131ff"/>
  </g>
  <polygon points="199.19 115.46 135.87 115.46 194.17 91.48 191.57 85.16 132.23 109.57 177.31 64.5 172.48 59.66 128.74 103.4 152.66 46.06 146.35 43.43 121.51 102.99 121.51 38.55 114.68 38.55 114.68 100.4 91.19 43.29 84.87 45.89 109.28 105.23 63.71 59.66 58.88 64.49 103.11 108.72 46.48 85.1 43.85 91.4 101.52 115.46 38.54 115.46 38.54 122.29 101.3 122.29 43 146.27 45.6 152.59 103.27 128.87 58.88 173.26 63.71 178.09 109.13 132.67 84.51 191.69 90.82 194.32 114.68 137.11 114.68 199.2 121.51 199.2 121.51 134.97 145.98 194.46 152.3 191.86 128.58 134.19 172.47 178.09 177.31 173.26 132.38 128.33 192.11 153.24 194.74 146.94 135.65 122.29 199.19 122.29 199.19 115.46" fill="#8131ff"/>
  <path d="M118.86,238.18C53.08,238.18-.44,184.66-.44,118.88S53.08-.42,118.86-.42s119.3,53.52,119.3,119.3-53.52,119.3-119.3,119.3ZM118.86,39.43c-43.81,0-79.45,35.64-79.45,79.45s35.64,79.45,79.45,79.45,79.45-35.64,79.45-79.45-35.64-79.45-79.45-79.45Z" fill="#f73b0f"/>
  <g>
    <path d="M5.34,130.4c-.02-1.03-.01-2.07,0-3.12.02-1.05.03-2.1.02-3.16,0-1.06,0-2.12-.01-3.19s-.03-2.12-.07-3.14c-.04-1.02-.08-2.04-.11-3.06s-.08-2.02-.14-3c-.07-.98-.13-1.93-.2-2.83,2.01-.21,3.94-.42,5.77-.64,1.84-.22,3.64-.44,5.4-.65,1.76-.22,3.52-.45,5.28-.71,1.76-.25,3.55-.54,5.37-.84,1.82-.31,3.7-.67,5.63-1.07-.04.56-.08,1.14-.1,1.74-.03.61-.03,1.2,0,1.78.02.58.06,1.15.1,1.72s.1,1.11.16,1.64c-1.46.12-2.66.23-3.6.32s-1.69.18-2.25.28c-.55.1-.93.25-1.13.45-.15.18-.26.39-.35.63-.08.24-.13.53-.14.87,0,.34,0,.76,0,1.25s.03,1.07.07,1.74.06,1.43.07,2.29c.02.98.02,1.82,0,2.51-.01.69,0,1.29.03,1.78.03.49.09.88.17,1.15.08.28.21.51.39.71.2.15.57.27,1.08.38.52.1,1.25.17,2.2.21.95.04,2.17.09,3.69.17-.11.76-.17,1.52-.17,2.29s.02,1.54.06,2.32c.04.78.08,1.56.11,2.34-2.02-.35-3.96-.65-5.82-.91-1.86-.26-3.66-.49-5.42-.69s-3.5-.39-5.25-.58c-1.74-.19-3.51-.36-5.3-.54-1.79-.17-3.65-.32-5.56-.44ZM10.42,119.73c.04.86.08,1.59.11,2.19.04.6.1,1.11.2,1.51.09.4.29.7.6.9.3.2.7.37,1.18.51.48.14,1.12.23,1.91.27.79.04,1.75.1,2.86.18.45.02.84.02,1.17,0,.33-.02.58-.07.75-.16.17-.09.32-.26.45-.5.12-.24.21-.56.25-.97.04-.4.06-.93.05-1.59-.01-.65-.01-1.46,0-2.42-.04-.98-.07-1.84-.1-2.57-.02-.73-.07-1.32-.12-1.76-.06-.44-.15-.79-.26-1.04s-.3-.42-.54-.52c-.24-.1-.52-.15-.83-.16-.31,0-.74,0-1.27.04-1.06.09-1.96.16-2.7.21-.74.05-1.35.14-1.81.28-.46.13-.84.32-1.12.57-.29.24-.48.58-.59,1.01-.11.43-.17.97-.18,1.63s-.01,1.45,0,2.38Z" fill="#42210b"/>
    <path d="M7.41,93.32c.33-.84.68-1.75,1.04-2.72.36-.97.71-1.93,1.03-2.9.32-.97.61-1.94.86-2.93,1.54-.41,3.09-.78,4.64-1.11,1.56-.33,3.07-.64,4.55-.91s2.92-.53,4.32-.79,2.78-.51,4.13-.75c1.35-.25,2.63-.5,3.85-.75.23-.05.4-.11.49-.18s.16-.17.2-.29c.05-.2.05-.36.01-.48-.04-.12-.15-.23-.34-.33-.19-.1-.47-.21-.82-.34-.85-.31-1.79-.63-2.81-.96s-2.08-.69-3.19-1.08c-1.11-.39-2.19-.75-3.26-1.1-1.07-.35-2.09-.67-3.07-.97-.98-.3-1.86-.57-2.66-.8-.8-.24-1.44-.42-1.94-.54.49-1.13.89-2.21,1.21-3.22.31-1.01.63-2.06.94-3.16,2.7,1.19,5.48,2.33,8.34,3.4,2.85,1.07,5.75,2.1,8.67,3.08,2.93.98,5.82,1.97,8.67,2.98-.28.62-.56,1.3-.84,2.03-.28.73-.55,1.48-.81,2.24-.26.76-.52,1.51-.78,2.25-.25.74-.47,1.44-.66,2.09-1.72.45-3.49.85-5.32,1.19-1.83.34-3.63.67-5.42.99-1.79.32-3.52.63-5.18.94-1.67.31-3.19.68-4.58,1.11-.29,0-.51.04-.64.11-.13.07-.22.14-.27.2s-.09.14-.13.24c-.11.23-.09.41.06.54.15.14.48.29.97.47.57.21,1.25.44,2.06.71.8.26,1.66.56,2.57.89.91.33,1.87.66,2.88.98s2.02.67,3.05,1.02c1.02.36,2.04.68,3.04.98,1,.3,1.94.58,2.81.84-.23.48-.44.97-.65,1.45-.2.49-.4,1-.6,1.53-.19.53-.36,1.06-.5,1.59-.14.53-.29,1.07-.47,1.62-2.91-1.14-5.79-2.24-8.65-3.31-2.85-1.07-5.68-2.1-8.49-3.09-2.8-.99-5.59-1.92-8.36-2.79Z" fill="#42210b"/>
    <path d="M21.03,59.78c1.75-2.05,3.49-4.18,5.19-6.38,1.71-2.2,3.37-4.42,5-6.65,1.62-2.23,3.18-4.45,4.66-6.64.78.85,1.64,1.63,2.59,2.33.95.71,1.89,1.4,2.83,2.09-.69.78-1.29,1.46-1.81,2.07s-.97,1.16-1.34,1.66-.72.97-1.04,1.39c-.27.4-.48.71-.63.95-.15.24-.22.44-.23.61,0,.17.06.35.19.53.13.18.34.38.62.59.55.45,1.21.97,1.98,1.58.77.61,1.65,1.29,2.62,2.05.97.76,2.02,1.55,3.13,2.38,1.11.83,2.29,1.71,3.55,2.64,1.26.93,2.57,1.86,3.94,2.81-.39.43-.78.89-1.16,1.37-.38.48-.76.99-1.13,1.51-.37.53-.72,1.03-1.06,1.52-.34.49-.67.99-1,1.5-1.39-1.12-2.7-2.17-3.92-3.13-1.22-.96-2.35-1.87-3.39-2.73-1.04-.86-2.02-1.64-2.95-2.34s-1.77-1.36-2.54-1.96c-.77-.61-1.52-1.17-2.24-1.68-.16-.12-.32-.24-.48-.34-.16-.1-.32-.17-.47-.19-.16-.02-.31,0-.47.09-.16.08-.34.23-.54.42-.2.2-.43.48-.71.84-.92,1.2-1.69,2.27-2.33,3.19-.64.92-1.16,1.74-1.57,2.44-.89-.9-1.77-1.72-2.62-2.45s-1.75-1.42-2.68-2.07Z" fill="#42210b"/>
    <path d="M40.43,36.58c.49-.37.97-.75,1.44-1.16.48-.41.94-.82,1.39-1.22.45-.4.88-.82,1.3-1.24s.79-.82,1.14-1.2c2.81,3.4,5.76,6.8,8.84,10.2,3.09,3.39,6.23,6.78,9.43,10.17-.37.3-.79.63-1.25.99-.46.36-.92.74-1.38,1.16-.46.41-.92.83-1.37,1.25-.45.42-.88.83-1.27,1.21-1.3-1.57-2.74-3.24-4.3-5-1.56-1.76-3.15-3.54-4.76-5.32-1.61-1.78-3.2-3.52-4.76-5.2-1.56-1.68-3.05-3.22-4.47-4.62Z" fill="#42210b"/>
    <path d="M54.01,25.28c.9-.71,1.84-1.4,2.81-2.04.97-.65,2.03-1.31,3.18-1.99,1.15-.68,2.46-1.39,3.91-2.15,1.92-1.06,3.61-1.89,5.08-2.49s2.76-1.01,3.9-1.22c1.13-.21,2.15-.18,3.05.08.9.26,1.71.76,2.42,1.51s1.4,1.73,2.06,2.95c.81,1.51,1.38,2.77,1.72,3.8.33,1.02.42,1.88.25,2.57-.17.69-.64,1.36-1.41,2-.3.25-.51.43-.65.54-.14.12-.24.22-.3.31-.07.09-.07.18-.03.27.07.13.17.18.29.14.12-.04.31-.11.57-.22.26-.11.6-.25,1.02-.42.51-.22.98-.35,1.39-.41.42-.05.83.05,1.24.32.41.26.84.7,1.29,1.32.45.62.97,1.45,1.58,2.5.61,1.05,1.33,2.38,2.17,3.99-.33.12-.72.28-1.14.46s-.87.4-1.32.62-.91.48-1.37.76c-.47.28-.9.53-1.3.77-.41.23-.78.47-1.14.72-.32-.54-.58-1.03-.79-1.46-.21-.43-.42-.83-.64-1.18-.22-.35-.44-.73-.67-1.12s-.49-.85-.8-1.37c-.2-.26-.43-.46-.69-.6-.26-.13-.54-.2-.83-.19-.3,0-.64.08-1.03.23-.39.15-.85.37-1.37.65-.52.28-1.12.6-1.78.96-.91.49-1.67.91-2.29,1.25-.62.35-1.11.63-1.49.87-.38.23-.67.45-.89.65-.22.2-.35.37-.39.51-.04.14-.04.29,0,.45.04.16.11.35.19.56.26.49.5.94.72,1.35.22.41.44.82.65,1.21s.45.83.7,1.3c.25.47.54.97.86,1.51-.38.15-.82.35-1.31.6-.49.25-1,.51-1.53.78-.53.27-1.07.57-1.61.91-.55.34-1.05.66-1.52.97-1.4-2.71-2.77-5.37-4.1-7.99-1.34-2.61-2.71-5.2-4.13-7.76-1.42-2.56-2.92-5.15-4.51-7.79ZM75.31,24.98c-.51-.95-.98-1.72-1.4-2.29-.42-.57-.83-.98-1.22-1.23-.39-.25-.81-.35-1.24-.32-.44.04-.95.17-1.54.4-.59.23-1.3.57-2.12,1.01-.93.56-1.72,1.01-2.38,1.36-.66.35-1.17.69-1.54,1s-.64.63-.8.95c-.16.32-.21.67-.14,1.06.07.39.23.86.49,1.39.26.53.59,1.16,1.01,1.88.4.79.74,1.43,1.03,1.91.29.49.56.83.82,1.04.25.21.52.32.79.35.17,0,.34-.04.5-.1.17-.06.37-.14.62-.25.25-.1.5-.22.78-.35.27-.13.58-.3.92-.49s.68-.39,1.02-.57c.34-.18.73-.41,1.16-.67.9-.46,1.62-.9,2.16-1.33.54-.43.94-.85,1.2-1.25s.41-.79.46-1.19c.04-.4,0-.79-.1-1.19-.11-.4-.27-.77-.46-1.13Z" fill="#42210b"/>
    <path d="M90.89,8.12c1.02-.16,2.05-.29,3.09-.42,1.04-.12,2.08-.25,3.13-.4,1.05-.15,2.1-.3,3.16-.45,1.06-.15,2.09-.31,3.1-.49,1-.18,2.01-.35,3.02-.52s1.99-.35,2.96-.55,1.89-.39,2.78-.58c.48,1.97.95,3.84,1.42,5.63.46,1.79.92,3.54,1.38,5.26.45,1.71.93,3.43,1.42,5.14s1.01,3.45,1.56,5.21,1.16,3.58,1.83,5.44c-.56.03-1.13.08-1.74.13-.6.05-1.19.13-1.76.23-.57.1-1.13.21-1.69.33-.56.12-1.09.25-1.61.38-.32-1.43-.59-2.61-.81-3.53s-.41-1.65-.58-2.19c-.17-.53-.37-.89-.6-1.06-.2-.12-.42-.21-.67-.26-.25-.05-.54-.06-.88-.02s-.75.1-1.24.17c-.49.07-1.06.17-1.71.3s-1.41.25-2.25.38c-.97.15-1.8.26-2.49.34-.69.08-1.27.17-1.76.27-.48.1-.85.21-1.12.32-.26.12-.48.28-.65.48-.12.22-.2.6-.23,1.12s0,1.26.09,2.2c.09.94.2,2.17.33,3.68-.77-.01-1.53.04-2.29.14-.76.1-1.53.23-2.29.37s-1.54.29-2.3.43c.07-2.05.11-4.01.11-5.89,0-1.88-.01-3.69-.05-5.46-.04-1.76-.09-3.52-.14-5.27-.05-1.75-.11-3.53-.18-5.33-.07-1.8-.18-3.66-.32-5.57ZM102.15,11.71c-.84.15-1.56.29-2.16.41s-1.08.25-1.47.4c-.39.15-.66.39-.81.72-.15.33-.27.74-.35,1.24s-.08,1.14,0,1.93c.07.79.14,1.74.21,2.85.04.45.1.84.16,1.16.06.32.15.56.26.72.11.16.3.29.55.37.26.09.59.13.99.12.41-.01.93-.07,1.58-.17.65-.1,1.45-.21,2.4-.33.97-.17,1.81-.32,2.53-.45.72-.12,1.29-.24,1.72-.36.43-.12.76-.25.99-.4.23-.15.38-.35.44-.6.06-.25.08-.53.04-.85-.04-.31-.11-.73-.21-1.25-.23-1.03-.43-1.92-.58-2.65-.15-.73-.32-1.31-.52-1.76-.2-.44-.43-.79-.71-1.04s-.64-.4-1.08-.45c-.44-.05-.99-.03-1.64.04-.65.07-1.44.18-2.36.32Z" fill="#42210b"/>
    <path d="M137.52,6.32c1.07.15,2.06.31,2.95.49.89.18,1.74.36,2.55.55.81.18,1.63.38,2.45.59.82.21,1.74.47,2.76.79-.39.83-.68,1.74-.86,2.73-.19.99-.35,2.02-.5,3.1-.94-.33-1.9-.63-2.88-.9-.98-.27-2.02-.52-3.13-.75s-2.34-.45-3.68-.67c-1.02-.14-1.92-.25-2.7-.34s-1.42-.13-1.93-.14-.93.05-1.25.16c-.33.11-.57.26-.72.44-.16.18-.26.41-.3.68-.04.25-.04.46,0,.63.04.17.1.35.18.53.09.18.23.36.45.55.21.19.47.41.77.68s.7.54,1.19.82c.45.23.9.43,1.36.6.46.18.93.36,1.42.55s.99.38,1.48.55c.5.17,1.01.35,1.54.54.53.19,1.1.36,1.72.51.99.36,1.83.75,2.53,1.17s1.25.89,1.65,1.41c.4.52.68,1.1.83,1.72.15.62.23,1.33.22,2.1-.01.78-.08,1.62-.2,2.51-.21,1.32-.53,2.42-.95,3.29-.42.88-.96,1.56-1.61,2.06-.65.49-1.47.83-2.46,1s-2.15.21-3.49.13c-1.34-.09-2.89-.27-4.66-.56-2.34-.35-4.44-.73-6.29-1.15-1.85-.41-3.49-.9-4.93-1.46.2-.48.4-1.04.6-1.7.2-.66.35-1.34.46-2.05s.23-1.42.35-2.15c.79.31,1.66.61,2.61.92s1.99.58,3.14.83,2.37.48,3.66.69c1.14.18,2.14.33,3,.43.85.1,1.53.14,2.03.13.5,0,.9-.06,1.21-.17.31-.1.53-.25.67-.45.13-.2.22-.44.27-.74.05-.32.06-.63.01-.92-.04-.29-.17-.55-.39-.79-.22-.24-.56-.46-1.04-.67-.31-.15-.71-.31-1.21-.46-.5-.16-1.04-.35-1.61-.57-.58-.22-1.18-.43-1.81-.64s-1.27-.42-1.9-.65c-.64-.23-1.27-.45-1.91-.65-1.11-.59-2.03-1.18-2.77-1.79-.75-.6-1.32-1.27-1.73-1.98-.41-.72-.66-1.52-.76-2.42-.1-.9-.06-1.89.12-2.99.19-1.19.5-2.21.93-3.05s.99-1.52,1.69-2.04,1.55-.91,2.56-1.16c1.01-.25,2.21-.35,3.59-.32,1.39.03,2.96.18,4.73.44Z" fill="#42210b"/>
    <path d="M156.02,11.42c.55.26,1.11.51,1.7.75.58.24,1.16.46,1.72.68.57.22,1.13.41,1.7.59.57.18,1.09.33,1.58.46-1.74,4.06-3.41,8.23-5.01,12.53-1.6,4.3-3.17,8.65-4.72,13.05-.44-.19-.92-.41-1.45-.65-.53-.24-1.08-.47-1.66-.69-.58-.22-1.16-.43-1.74-.64-.58-.21-1.14-.4-1.66-.57.8-1.88,1.62-3.92,2.48-6.11.85-2.2,1.7-4.42,2.55-6.67.85-2.25,1.66-4.46,2.44-6.61.78-2.16,1.47-4.19,2.06-6.09Z" fill="#42210b"/>
    <path d="M181.39,23.45c.92.57,1.75,1.12,2.49,1.65.74.53,1.44,1.04,2.11,1.53.67.5,1.34,1.01,2,1.53s1.4,1.14,2.21,1.84c-.69.6-1.33,1.32-1.9,2.15-.57.83-1.14,1.71-1.71,2.63-.73-.68-1.48-1.35-2.27-1.99-.78-.65-1.64-1.3-2.56-1.96-.92-.66-1.95-1.36-3.09-2.11-.88-.54-1.66-1.01-2.33-1.41-.68-.4-1.25-.7-1.71-.91-.46-.21-.87-.33-1.21-.36s-.62,0-.84.11-.4.27-.55.5c-.14.21-.22.4-.26.57-.04.17-.05.36-.05.56s.07.43.19.68.26.57.43.93c.17.37.42.78.75,1.23.32.39.65.75,1,1.1.35.35.7.71,1.08,1.08s.75.74,1.13,1.1c.38.36.78.73,1.19,1.11.41.39.86.77,1.37,1.16.75.73,1.37,1.43,1.84,2.1s.78,1.32.93,1.96c.15.64.17,1.28.06,1.91-.11.63-.33,1.3-.66,2.01-.32.71-.72,1.45-1.2,2.22-.73,1.12-1.46,1.99-2.21,2.62s-1.51,1.04-2.31,1.23-1.68.16-2.65-.08c-.97-.24-2.05-.67-3.24-1.3-1.19-.62-2.53-1.42-4.03-2.4-2-1.27-3.76-2.47-5.28-3.6-1.52-1.13-2.83-2.24-3.92-3.34.38-.35.79-.79,1.24-1.31.45-.52.86-1.08,1.26-1.69.39-.6.79-1.21,1.19-1.82.6.6,1.27,1.23,2.01,1.9s1.58,1.34,2.53,2.03c.95.69,1.97,1.4,3.07,2.11.97.63,1.83,1.17,2.56,1.6s1.34.75,1.8.95c.46.19.85.31,1.18.34s.59-.02.79-.14.38-.31.55-.57c.18-.27.31-.55.38-.83.08-.28.07-.57-.04-.88-.1-.31-.33-.65-.68-1.03-.22-.26-.53-.57-.92-.91-.39-.35-.81-.74-1.24-1.17-.44-.43-.9-.87-1.4-1.32-.49-.44-.99-.9-1.48-1.37-.49-.47-.98-.93-1.48-1.37-.77-.98-1.38-1.9-1.81-2.76-.44-.85-.7-1.69-.78-2.51-.08-.82.01-1.66.29-2.52.27-.86.71-1.75,1.32-2.68.66-1.01,1.35-1.82,2.09-2.41.73-.59,1.52-.99,2.37-1.18.85-.2,1.79-.2,2.81-.02s2.16.57,3.42,1.16c1.25.59,2.64,1.36,4.15,2.32Z" fill="#42210b"/>
    <path d="M195.01,33.67c1.69,2.1,3.46,4.2,5.31,6.28,1.85,2.08,3.72,4.13,5.61,6.13s3.79,3.94,5.67,5.8c-.98.61-1.9,1.32-2.77,2.12-.87.8-1.73,1.6-2.57,2.4-.64-.82-1.2-1.54-1.7-2.16-.5-.62-.96-1.16-1.39-1.62s-.82-.88-1.18-1.28c-.34-.34-.61-.6-.82-.79-.21-.19-.39-.3-.56-.34-.17-.04-.35,0-.55.09-.2.1-.43.26-.69.5-.54.45-1.18,1.01-1.92,1.66-.74.65-1.57,1.38-2.49,2.2-.93.82-1.9,1.7-2.92,2.63-1.02.94-2.1,1.94-3.24,3.01-1.14,1.07-2.31,2.18-3.49,3.35-.35-.46-.73-.93-1.13-1.4s-.83-.93-1.28-1.39-.88-.9-1.3-1.32c-.42-.42-.84-.84-1.29-1.26,1.36-1.16,2.63-2.25,3.79-3.27,1.17-1.02,2.27-1.96,3.3-2.83,1.03-.87,1.98-1.69,2.84-2.46.86-.78,1.66-1.49,2.4-2.14.74-.65,1.42-1.28,2.06-1.89.15-.13.29-.27.42-.41.13-.14.22-.28.28-.43.05-.15.05-.31,0-.48-.05-.17-.16-.37-.32-.6-.16-.23-.39-.51-.69-.85-1.01-1.12-1.92-2.08-2.7-2.88-.79-.8-1.49-1.46-2.11-1.99,1.05-.71,2.02-1.42,2.89-2.13.87-.71,1.71-1.46,2.52-2.25Z" fill="#42210b"/>
    <path d="M214.77,57.83c.26.55.55,1.09.86,1.64.31.55.62,1.08.93,1.6.31.52.63,1.03.96,1.52.33.49.65.94.95,1.35-3.88,2.1-7.79,4.34-11.71,6.71-3.92,2.37-7.86,4.8-11.8,7.29-.22-.42-.47-.9-.73-1.41-.26-.52-.55-1.04-.87-1.57-.32-.53-.64-1.06-.96-1.58-.33-.53-.64-1.02-.95-1.48,1.79-.98,3.71-2.06,5.74-3.25,2.03-1.19,4.08-2.41,6.14-3.65s4.07-2.46,6.02-3.66c1.95-1.2,3.75-2.37,5.4-3.49Z" fill="#42210b"/>
    <path d="M227.72,84.67c.35,1.02.65,1.98.89,2.85.24.88.46,1.72.66,2.53.2.81.4,1.62.58,2.45.18.83.36,1.77.54,2.82-.92.03-1.86.18-2.83.46-.97.28-1.97.6-2.99.95-.13-.99-.29-1.98-.49-2.98-.2-1-.44-2.04-.74-3.14-.3-1.1-.65-2.29-1.06-3.59-.34-.98-.64-1.83-.91-2.57-.27-.73-.52-1.33-.75-1.79-.22-.46-.46-.81-.71-1.04s-.49-.39-.72-.45c-.23-.06-.48-.05-.74.04-.24.08-.43.17-.57.28-.14.11-.27.24-.39.4-.12.16-.22.37-.29.65-.07.27-.16.61-.26,1-.1.39-.17.87-.2,1.43,0,.5.03,1,.07,1.48.05.49.1.99.15,1.52.05.53.11,1.05.18,1.57.07.52.14,1.06.22,1.62.07.56.18,1.15.32,1.76.12,1.05.15,1.97.09,2.79-.06.81-.23,1.51-.52,2.11s-.67,1.1-1.16,1.52c-.49.42-1.08.8-1.78,1.14-.7.34-1.48.66-2.33.96-1.27.4-2.4.62-3.37.63-.97.02-1.83-.15-2.56-.51-.74-.36-1.4-.94-2-1.74-.6-.8-1.16-1.82-1.68-3.05-.52-1.23-1.06-2.7-1.6-4.41-.74-2.25-1.34-4.29-1.81-6.13-.46-1.84-.77-3.52-.92-5.06.52-.03,1.12-.11,1.79-.23.67-.12,1.35-.29,2.04-.51s1.37-.44,2.07-.66c.08.85.2,1.76.36,2.74.15.98.38,2.04.67,3.18s.64,2.33,1.04,3.58c.35,1.1.67,2.06.97,2.87.3.8.56,1.43.79,1.87.23.44.46.78.7,1.01.23.23.46.36.7.39s.5,0,.78-.09c.31-.1.59-.23.83-.4.24-.17.41-.4.53-.7.12-.3.16-.71.12-1.23,0-.34-.05-.77-.13-1.29-.08-.52-.16-1.08-.22-1.7-.06-.61-.15-1.25-.25-1.9-.1-.65-.2-1.32-.28-1.99s-.17-1.34-.28-1.99c.02-1.25.14-2.34.34-3.28.2-.94.53-1.75.99-2.44.46-.69,1.06-1.28,1.82-1.77.76-.49,1.66-.91,2.72-1.24,1.15-.37,2.2-.55,3.14-.54.94,0,1.8.2,2.59.59.78.39,1.51.97,2.19,1.76.67.79,1.31,1.81,1.91,3.06.6,1.25,1.18,2.73,1.74,4.42Z" fill="#42210b"/>
    <path d="M232.59,106.32c0,.55-.03,1.13-.05,1.74s-.04,1.2-.05,1.78c0,.58,0,1.15.03,1.7.03.55.05,1.12.07,1.7-.68-.04-1.35-.07-2.02-.11-.67-.04-1.34-.07-2.02-.09-.68-.02-1.42-.04-2.23-.06-.81-.01-1.69-.03-2.65-.04-.45,0-.83,0-1.13.02s-.56.08-.76.18-.37.26-.5.5c-.13.24-.23.57-.3,1-.07.43-.12.97-.14,1.62-.02.65-.04,1.46-.06,2.42-.02,1.13-.02,2.1,0,2.91.01.81.05,1.49.12,2.04s.19.99.36,1.31c.17.32.39.56.65.73.26.17.59.3,1,.39.4.09.88.16,1.43.19,1.03.07,2.22.09,3.55.08,1.34-.02,2.82-.01,4.46.02-.03.53-.06,1.07-.08,1.62-.02.55-.03,1.13-.03,1.72,0,.59.01,1.2.03,1.81s.04,1.23.08,1.83c-1.21,0-2.39.02-3.54.04-1.15.02-2.26.03-3.35.02-1.08,0-2.06-.07-2.93-.18-.87-.12-1.6-.31-2.2-.58s-1.04-.65-1.3-1.14c-.22-.41-.35-.8-.38-1.18-.03-.38-.07-.73-.12-1.06-.07-.46-.13-.81-.17-1.06-.05-.25-.16-.38-.33-.38-.18,0-.29.1-.35.32-.05.21-.09.54-.11.98s-.09.99-.2,1.64c-.11.73-.38,1.27-.8,1.61-.42.35-1.1.57-2.03.67-.93.1-2.18.13-3.72.09-1.55-.04-3.48-.06-5.8-.08.06-.55.11-1.17.14-1.85.04-.68.06-1.36.07-2.04.01-.68,0-1.31,0-1.89-.02-.58-.04-1.07-.09-1.48.91.04,1.77.07,2.59.1s1.59.04,2.31.06,1.42.02,2.1.03c.43,0,.8,0,1.12-.02.32-.02.58-.09.8-.21.22-.12.39-.33.52-.62.13-.29.23-.71.3-1.26.07-.55.13-1.24.17-2.06.04-.82.07-1.85.09-3.08.02-.98.02-1.81.02-2.49,0-.68-.02-1.24-.07-1.68-.04-.44-.11-.79-.19-1.04s-.22-.45-.41-.59c-.19-.14-.41-.23-.68-.28-.26-.04-.6-.07-1-.07-.58,0-1.17-.02-1.76-.03-.59,0-1.19-.02-1.79-.03s-1.22-.01-1.85-.01-1.3.02-2,.06c.08-.55.14-1.12.16-1.7.02-.58.03-1.16.03-1.74,0-.58-.01-1.15-.03-1.7-.02-.55-.06-1.12-.12-1.7,2.01.11,4.08.19,6.2.25s4.32.12,6.61.18,4.64.11,7.03.13,4.84.03,7.33.02Z" fill="#42210b"/>
    <path d="M225.98,159.14c-.27.51-.54,1.04-.82,1.6-.28.55-.56,1.11-.86,1.66-.29.56-.57,1.12-.83,1.7-.26.57-.5,1.15-.71,1.72-1.33-.33-2.68-.69-4.03-1.08-1.35-.38-2.7-.77-4.05-1.16-1.35-.38-2.72-.76-4.11-1.12-1.39-.36-2.77-.72-4.14-1.07s-2.71-.71-4.03-1.06c-.28-.06-.53-.07-.74,0-.22.06-.4.16-.56.3-.16.14-.33.33-.49.57s-.34.51-.5.83c-.2.38-.35.7-.46.95-.11.26-.17.5-.19.73-.02.23.01.45.1.65.09.2.23.4.42.58.84.79,1.86,1.7,3.07,2.73,1.21,1.04,2.54,2.14,3.99,3.33s2.95,2.4,4.47,3.64c1.52,1.25,3.03,2.46,4.51,3.64-.16.26-.36.59-.59.99-.23.41-.47.86-.72,1.37-.25.51-.52,1.02-.79,1.55-.28.52-.53,1.03-.76,1.52-.23.49-.44.94-.63,1.36-1.29-1.28-2.67-2.63-4.14-4.07-1.47-1.43-2.97-2.87-4.49-4.32-1.53-1.45-3.02-2.86-4.47-4.24-1.45-1.38-2.82-2.66-4.09-3.83-1.28-1.17-2.42-2.24-3.42-3.2,1.21-2.07,2.32-4.1,3.35-6.1s2.01-4.05,2.96-6.17c1.68.49,3.42.95,5.24,1.38,1.81.43,3.65.85,5.53,1.27,1.87.42,3.76.82,5.66,1.22,1.9.39,3.8.77,5.7,1.15s3.78.7,5.66.98Z" fill="#42210b"/>
    <path d="M206.45,192.17c-.74.73-1.49,1.44-2.26,2.15s-1.54,1.43-2.3,2.17c-.76.73-1.53,1.47-2.3,2.22-.77.74-1.51,1.48-2.22,2.22-.71.73-1.42,1.47-2.14,2.19-.72.73-1.41,1.45-2.07,2.18-.66.73-1.3,1.43-1.91,2.1-1.54-1.31-3.03-2.55-4.46-3.73-1.43-1.18-2.83-2.33-4.2-3.45-1.37-1.12-2.76-2.23-4.16-3.33-1.4-1.09-2.84-2.2-4.32-3.3s-3.04-2.21-4.67-3.33c.43-.35.87-.73,1.33-1.13.46-.4.89-.81,1.29-1.22.4-.42.79-.84,1.17-1.26.38-.42.74-.84,1.08-1.25,1.1.97,2.01,1.76,2.73,2.38.72.62,1.3,1.09,1.76,1.43.45.33.82.5,1.11.5.23-.02.46-.08.7-.18.23-.11.47-.27.72-.5.25-.23.55-.52.9-.86.35-.35.75-.76,1.21-1.25.46-.49.99-1.03,1.6-1.63.7-.69,1.3-1.27,1.81-1.74.51-.47.93-.89,1.26-1.25s.57-.67.71-.92c.14-.25.23-.51.25-.77-.03-.25-.19-.6-.47-1.04s-.74-1.02-1.37-1.73c-.63-.71-1.44-1.63-2.43-2.78.63-.44,1.22-.93,1.77-1.46s1.1-1.08,1.64-1.65,1.08-1.13,1.61-1.7c1.15,1.7,2.27,3.31,3.37,4.83,1.1,1.52,2.18,2.98,3.25,4.39,1.07,1.41,2.14,2.8,3.21,4.19,1.07,1.39,2.16,2.79,3.28,4.2,1.11,1.41,2.29,2.86,3.53,4.32ZM195.23,195.87c.59-.62,1.09-1.15,1.51-1.59.41-.44.73-.84.96-1.18.22-.35.3-.7.23-1.05-.07-.36-.22-.76-.45-1.21-.23-.45-.6-.97-1.13-1.57-.52-.6-1.14-1.33-1.84-2.19-.3-.34-.57-.62-.81-.85-.24-.22-.45-.37-.64-.43-.19-.06-.41-.06-.67.02-.26.08-.55.24-.87.49-.32.25-.72.6-1.18,1.06-.47.46-1.05,1.02-1.75,1.67-.68.71-1.28,1.32-1.79,1.85-.51.52-.91.96-1.18,1.3s-.47.65-.57.91-.1.51,0,.75c.1.24.25.48.46.71.21.23.51.53.9.89.8.7,1.47,1.3,2.02,1.8.55.5,1.03.87,1.45,1.12.42.24.81.38,1.19.42.37.04.75-.05,1.14-.27.38-.22.82-.55,1.3-.99.48-.44,1.06-.99,1.72-1.65Z" fill="#42210b"/>
    <path d="M179.21,215.65c-.49.25-1.03.51-1.59.79s-1.13.56-1.69.86c-.56.3-1.1.61-1.64.94-.54.33-1.05.63-1.53.91-1.04-2.55-2.16-5.11-3.37-7.68-1.2-2.57-2.51-5.21-3.91-7.91-.36-.66-.66-1.2-.88-1.61-.22-.41-.42-.72-.61-.94-.18-.22-.37-.34-.57-.37-.2-.03-.43.01-.7.12-.27.11-.61.27-1.01.47-1.06.54-1.99,1.02-2.81,1.44-.81.43-1.56.81-2.23,1.15-.67.34-1.29.66-1.86.97-.57.3-1.13.62-1.68.96-.55.34-1.16.71-1.82,1.13-.38-1.02-.84-2.05-1.39-3.07s-1.07-1.97-1.57-2.85c2.07-1.05,4.15-2.09,6.25-3.13,2.1-1.04,4.18-2.08,6.23-3.14,2.05-1.06,4.08-2.13,6.09-3.24.61,1.36,1.34,2.92,2.19,4.69.86,1.77,1.76,3.59,2.7,5.45.95,1.86,1.88,3.69,2.8,5.49.92,1.79,1.78,3.43,2.57,4.9.79,1.48,1.46,2.7,2.01,3.66Z" fill="#42210b"/>
    <path d="M138.81,231.21c-1.06.22-2.04.39-2.94.51s-1.76.23-2.59.33c-.83.1-1.66.18-2.51.26-.84.08-1.8.13-2.87.17.09-.91.06-1.87-.09-2.86-.15-1-.34-2.03-.56-3.09,1,0,2-.04,3.02-.1,1.01-.07,2.08-.18,3.21-.33,1.12-.15,2.36-.35,3.7-.59,1.01-.21,1.9-.4,2.66-.58.76-.18,1.38-.35,1.87-.51.48-.16.86-.35,1.13-.57.27-.22.45-.43.54-.65.09-.22.11-.47.06-.74-.04-.25-.11-.45-.2-.6-.09-.15-.21-.3-.35-.44-.14-.14-.34-.26-.61-.37-.26-.11-.58-.24-.95-.38-.37-.15-.84-.28-1.39-.38-.5-.06-.99-.1-1.48-.12-.49-.01-1-.03-1.53-.05-.53-.02-1.05-.03-1.58-.02-.52,0-1.07,0-1.63,0-.56,0-1.16.03-1.79.09-1.05-.02-1.98-.1-2.78-.27-.8-.16-1.47-.43-2.02-.79-.55-.36-1-.81-1.36-1.35-.35-.54-.65-1.18-.9-1.91s-.46-1.55-.65-2.44c-.24-1.31-.3-2.46-.19-3.42s.39-1.79.84-2.47c.45-.68,1.12-1.27,1.99-1.76.87-.49,1.95-.92,3.25-1.28,1.29-.36,2.82-.7,4.58-1.02,2.33-.44,4.43-.78,6.31-1s3.59-.31,5.14-.25c-.03.52-.03,1.12,0,1.8.03.69.12,1.38.24,2.09.13.71.26,1.42.39,2.14-.85-.03-1.77-.03-2.77,0s-2.07.11-3.24.26c-1.17.15-2.39.33-3.68.57-1.14.21-2.13.4-2.97.59-.84.19-1.49.37-1.96.54s-.83.36-1.09.56c-.26.2-.42.41-.48.64-.06.23-.06.49-.01.79.06.32.16.61.29.87.14.26.35.46.63.62.28.15.69.25,1.2.28.34.04.77.05,1.29.04s1.09-.02,1.71,0c.62.02,1.26.02,1.92,0,.66-.02,1.33-.02,2.01-.02s1.35,0,2.01-.02c1.24.19,2.31.44,3.21.77.9.32,1.67.76,2.29,1.3.62.54,1.13,1.22,1.52,2.03s.68,1.76.88,2.86c.21,1.19.26,2.25.13,3.18-.13.93-.43,1.76-.92,2.49-.48.73-1.16,1.37-2.03,1.94s-1.96,1.07-3.28,1.49c-1.32.43-2.86.82-4.61,1.16Z" fill="#42210b"/>
    <path d="M121.09,233.13c-2.67-.38-5.4-.71-8.17-.98-2.77-.27-5.54-.49-8.29-.67-2.75-.18-5.46-.3-8.11-.38.3-1.11.5-2.26.58-3.44.09-1.18.17-2.35.25-3.51,1.02.17,1.93.31,2.71.43.79.12,1.5.2,2.12.24.63.04,1.21.09,1.73.13.48.02.86.02,1.14.02s.49-.05.64-.13c.15-.09.26-.24.34-.44.08-.21.14-.49.17-.84.09-.7.18-1.54.28-2.52.1-.98.21-2.08.33-3.31.12-1.23.23-2.53.34-3.92.11-1.38.22-2.85.33-4.41.11-1.56.2-3.17.27-4.83.57.1,1.17.18,1.78.25.61.07,1.24.12,1.88.15.64.03,1.26.06,1.85.08.59.03,1.19.04,1.8.04-.21,1.78-.39,3.44-.55,4.98-.16,1.54-.32,2.98-.49,4.32-.17,1.34-.3,2.58-.4,3.74-.1,1.15-.2,2.22-.3,3.2-.1.98-.17,1.91-.22,2.79-.02.2-.03.4-.03.58,0,.19.03.36.09.5.06.14.17.26.33.35.16.09.37.17.64.23.27.06.63.11,1.09.15,1.51.13,2.82.22,3.94.27,1.12.05,2.09.05,2.9.03-.29,1.24-.51,2.42-.67,3.53-.16,1.11-.26,2.23-.31,3.37Z" fill="#42210b"/>
    <path d="M89.77,229.6c-.35-.22-.73-.42-1.16-.62-.42-.19-.86-.38-1.32-.58-.45-.19-.92-.37-1.39-.54-.47-.17-.92-.33-1.34-.46-.42-.14-.81-.26-1.17-.38.82-1.95,1.6-3.86,2.33-5.72.74-1.86,1.43-3.62,2.06-5.26s1.18-3.12,1.67-4.42c.33-.77.55-1.44.67-2.03.12-.59.13-1.12.03-1.59s-.32-.9-.67-1.3c-.35-.39-.84-.76-1.48-1.1-.64-.34-1.42-.7-2.36-1.07-.89-.35-1.67-.62-2.34-.81-.67-.19-1.25-.3-1.76-.32-.5-.02-.96.04-1.35.18s-.74.37-1.03.67c-.29.3-.57.7-.83,1.18-.26.48-.51,1.05-.77,1.71-.51,1.24-1.08,2.64-1.7,4.21-.63,1.57-1.29,3.28-1.99,5.15s-1.44,3.86-2.22,5.99c-.49-.19-1-.42-1.52-.68-.52-.26-1.07-.5-1.64-.72s-1.13-.43-1.67-.61-1.08-.37-1.63-.55c.66-1.42,1.26-2.82,1.78-4.2.52-1.38,1.05-2.75,1.57-4.12s1.05-2.73,1.6-4.1c.55-1.37,1.12-2.78,1.71-4.22.55-1.35,1.17-2.48,1.85-3.38s1.45-1.58,2.32-2.04c.87-.46,1.87-.71,2.99-.76,1.13-.05,2.41.09,3.84.4,1.43.32,3.08.82,4.94,1.52,1.78.7,3.32,1.4,4.62,2.11,1.29.71,2.34,1.44,3.16,2.21.81.76,1.36,1.62,1.65,2.57.29.95.36,2,.21,3.15s-.52,2.47-1.1,3.97c-.65,1.67-1.25,3.19-1.8,4.57-.55,1.38-1.08,2.7-1.59,3.97-.51,1.26-1.02,2.54-1.53,3.82-.52,1.29-1.05,2.68-1.62,4.2Z" fill="#42210b"/>
    <path d="M45.39,206.1c-.91-.76-1.84-1.57-2.81-2.42s-1.99-1.8-3.07-2.84c-1.08-1.04-2.2-2.19-3.35-3.44.37-.32.74-.69,1.12-1.11s.75-.85,1.1-1.29c.35-.44.72-.92,1.11-1.42.65.68,1.28,1.3,1.87,1.89.6.58,1.18,1.12,1.74,1.63.56.5,1.13,1.01,1.69,1.51s1.13,1,1.7,1.47c.57.48,1.19.99,1.84,1.54,1.03.86,1.92,1.55,2.7,2.08.77.53,1.48.88,2.13,1.04.65.17,1.29.12,1.91-.13.62-.25,1.31-.74,2.06-1.46.75-.72,1.61-1.66,2.58-2.82.82-.99,1.52-1.85,2.1-2.6.58-.75,1.04-1.43,1.37-2.03.34-.6.56-1.16.66-1.67.1-.51.07-.99-.08-1.44-.15-.45-.41-.91-.79-1.38-.38-.47-.89-.98-1.53-1.55-.99-.82-1.81-1.53-2.47-2.11-.66-.58-1.22-1.07-1.67-1.45-.45-.38-.85-.66-1.19-.85-.34-.18-.64-.31-.92-.37-.2-.07-.41-.06-.63.04-.21.1-.43.24-.66.43-.22.19-.48.46-.77.81-.29.35-.63.75-1.02,1.22-.37.41-.65.77-.81,1.09s-.26.63-.26.94c0,.3.08.63.26.98s.5.75.94,1.2c.44.45,1.01.97,1.71,1.55.28.3.58.58.89.85s.63.54.95.81c.31.28.61.53.89.77.28.23.55.46.81.68.26.22.49.42.68.6.2.18.36.34.5.49-.62.7-1.19,1.38-1.72,2.03-.53.66-1.01,1.25-1.45,1.77-.6-.5-1.22-1.03-1.86-1.58-.64-.55-1.29-1.12-1.95-1.7-.66-.58-1.33-1.17-1.99-1.74s-1.33-1.14-1.99-1.69c-.66-.55-1.31-1.09-1.94-1.62-.64-.53-1.26-1.04-1.85-1.52-.6-.48-1.16-.93-1.68-1.33,1.46-1.87,2.76-3.49,3.9-4.87,1.14-1.38,2.19-2.5,3.16-3.37s1.88-1.52,2.74-1.95c.86-.43,1.71-.64,2.55-.63.75.04,1.64.34,2.64.9,1.01.56,2.11,1.31,3.31,2.25,1.2.94,2.53,2.03,3.98,3.28,1.65,1.41,2.94,2.72,3.87,3.92.93,1.2,1.53,2.36,1.8,3.47.27,1.11.24,2.25-.08,3.4-.33,1.16-.93,2.4-1.81,3.73-.88,1.33-1.99,2.79-3.31,4.38-1.78,2.13-3.42,3.73-4.93,4.82s-3.01,1.67-4.49,1.74c-1.48.08-3.03-.3-4.66-1.14-1.63-.84-3.46-2.1-5.49-3.8Z" fill="#42210b"/>
    <path d="M27.5,187.42c-.54-.88-1.07-1.78-1.58-2.69-.51-.91-1.04-1.82-1.58-2.73s-1.09-1.82-1.64-2.74c-.55-.92-1.1-1.81-1.66-2.67-.55-.86-1.1-1.72-1.65-2.58-.54-.86-1.09-1.7-1.65-2.51-.56-.81-1.09-1.59-1.61-2.34,1.63-1.2,3.17-2.37,4.64-3.49s2.91-2.22,4.31-3.31,2.8-2.18,4.19-3.3c1.39-1.12,2.79-2.27,4.2-3.46,1.41-1.19,2.85-2.46,4.3-3.79.25.5.51,1.02.8,1.55.28.54.58,1.05.9,1.53.31.49.63.96.96,1.43.33.46.65.91.97,1.33-1.19.85-2.17,1.55-2.94,2.11-.77.56-1.36,1.02-1.79,1.38-.43.37-.67.69-.74.96-.04.23-.03.47.02.72.05.25.16.52.33.82s.38.65.64,1.07c.26.42.57.91.94,1.46.37.56.78,1.2,1.23,1.93.51.84.94,1.56,1.28,2.16.34.6.65,1.11.93,1.51.28.41.52.71.73.9.21.2.44.34.7.42.25.02.63-.05,1.13-.22.5-.17,1.17-.48,2-.94.83-.45,1.92-1.03,3.26-1.73.29.71.63,1.4,1.02,2.06.39.66.8,1.32,1.23,1.97.43.65.86,1.31,1.29,1.96-1.92.73-3.74,1.46-5.47,2.18-1.73.72-3.4,1.44-5.01,2.16-1.61.72-3.21,1.45-4.81,2.17s-3.21,1.47-4.84,2.23c-1.63.76-3.3,1.58-5.01,2.45ZM26.45,175.65c.47.72.87,1.33,1.21,1.83.34.5.65.9.94,1.2.29.3.61.45.97.47s.79-.04,1.28-.16,1.08-.37,1.79-.74,1.55-.8,2.55-1.3c.4-.22.74-.41,1.01-.6.27-.18.46-.36.57-.52.11-.17.15-.39.13-.66-.02-.27-.11-.59-.28-.96-.17-.37-.42-.83-.76-1.39-.34-.56-.75-1.25-1.23-2.08-.53-.83-1-1.54-1.39-2.16-.39-.62-.73-1.1-1-1.45-.27-.35-.52-.6-.75-.76-.23-.16-.47-.21-.73-.17-.26.04-.52.14-.8.29-.27.15-.63.38-1.07.68-.86.62-1.6,1.14-2.22,1.56s-1.09.81-1.42,1.16c-.33.35-.56.71-.68,1.06-.12.36-.12.75,0,1.17.13.42.35.92.67,1.49.32.57.73,1.26,1.21,2.05Z" fill="#42210b"/>
  </g>
</svg>