<svg width="24" height="24" viewBox="0 0 24 24" fill="none" xmlns="http://www.w3.org/2000/svg">
<g clip-path="url(#clip0_19_83)">
<path d="M12.7865 24L12.9033 16.9795L15.4519 23.4796L17.2921 22.7593L14.6743 16.0791L19.6211 21.1942L21.0418 19.8189L16.3067 14.9216L22.5852 17.6641L23.3787 15.8516L16.7559 12.9587L23.9664 13.0794L24 11.1026L17.1892 10.9879L23.5192 8.50853L22.7969 6.66634L16.1167 9.28419L21.303 4.2701L19.9278 2.84739L14.9612 7.65174L17.6602 1.47415L15.8476 0.682661L13.0715 7.03834L13.1882 0.0336384L11.2095 0L11.0947 6.94138L8.54613 0.441256L6.70591 1.16151L9.22879 7.60228L4.37893 2.5862L2.9582 3.96141L7.92877 9.10215L1.41281 6.25476L0.619342 8.06728L6.90972 10.8157L0.0336384 10.701L0 12.6777L7.15113 12.7984L0.478852 15.4123L1.20109 17.2545L7.64185 14.7297L2.69701 19.5103L4.07222 20.933L9.14173 16.0297L6.2508 22.6485L8.06332 23.44L10.9285 16.8825L10.8098 23.9664L12.7865 24Z" fill="#F73B0F"/>
</g>
<defs>
<clipPath id="clip0_19_83">
<rect width="24" height="24" fill="white"/>
</clipPath>
</defs>
</svg>
